<?xml version="1.0" encoding="UTF-8" standalone="no"?>
<svg
   width="32"
   height="32"
   viewBox="0 0 32 32"
   fill="none"
   version="1.1"
   id="svg10"
   sodipodi:docname="logo-icon.svg"
   inkscape:version="1.4 (e7c3feb100, 2024-10-09)"
   xmlns:inkscape="http://www.inkscape.org/namespaces/inkscape"
   xmlns:sodipodi="http://sodipodi.sourceforge.net/DTD/sodipodi-0.dtd"
   xmlns="http://www.w3.org/2000/svg"
   xmlns:svg="http://www.w3.org/2000/svg">
  <sodipodi:namedview
     id="namedview10"
     pagecolor="#ffffff"
     bordercolor="#000000"
     borderopacity="0.25"
     inkscape:showpageshadow="2"
     inkscape:pageopacity="0.0"
     inkscape:pagecheckerboard="0"
     inkscape:deskcolor="#d1d1d1"
     inkscape:zoom="25"
     inkscape:cx="16.04"
     inkscape:cy="16.04"
     inkscape:window-width="1920"
     inkscape:window-height="1011"
     inkscape:window-x="0"
     inkscape:window-y="0"
     inkscape:window-maximized="1"
     inkscape:current-layer="svg10" />
  <defs
     id="defs10">
    <filter
       id="filter0_d_1884_16361"
       x="7.42383"
       y="6.2373"
       width="5.36841"
       height="20.5264"
       filterUnits="userSpaceOnUse"
       color-interpolation-filters="sRGB">
      <feFlood
         flood-opacity="0"
         result="BackgroundImageFix"
         id="feFlood4" />
      <feColorMatrix
         in="SourceAlpha"
         type="matrix"
         values="0 0 0 0 0 0 0 0 0 0 0 0 0 0 0 0 0 0 127 0"
         result="hardAlpha"
         id="feColorMatrix4" />
      <feOffset
         dy="0.5"
         id="feOffset4" />
      <feGaussianBlur
         stdDeviation="0.5"
         id="feGaussianBlur4" />
      <feComposite
         in2="hardAlpha"
         operator="out"
         id="feComposite4" />
      <feColorMatrix
         type="matrix"
         values="0 0 0 0 0 0 0 0 0 0 0 0 0 0 0 0 0 0 0.12 0"
         id="feColorMatrix5" />
      <feBlend
         mode="normal"
         in2="BackgroundImageFix"
         result="effect1_dropShadow_1884_16361"
         id="feBlend5" />
      <feBlend
         mode="normal"
         in="SourceGraphic"
         in2="effect1_dropShadow_1884_16361"
         result="shape"
         id="feBlend6" />
    </filter>
    <filter
       id="filter1_d_1884_16361"
       x="13.7422"
       y="12.9727"
       width="5.36841"
       height="13.7891"
       filterUnits="userSpaceOnUse"
       color-interpolation-filters="sRGB">
      <feFlood
         flood-opacity="0"
         result="BackgroundImageFix"
         id="feFlood6" />
      <feColorMatrix
         in="SourceAlpha"
         type="matrix"
         values="0 0 0 0 0 0 0 0 0 0 0 0 0 0 0 0 0 0 127 0"
         result="hardAlpha"
         id="feColorMatrix6" />
      <feOffset
         dy="0.5"
         id="feOffset6" />
      <feGaussianBlur
         stdDeviation="0.5"
         id="feGaussianBlur6" />
      <feComposite
         in2="hardAlpha"
         operator="out"
         id="feComposite6" />
      <feColorMatrix
         type="matrix"
         values="0 0 0 0 0 0 0 0 0 0 0 0 0 0 0 0 0 0 0.12 0"
         id="feColorMatrix7" />
      <feBlend
         mode="normal"
         in2="BackgroundImageFix"
         result="effect1_dropShadow_1884_16361"
         id="feBlend7" />
      <feBlend
         mode="normal"
         in="SourceGraphic"
         in2="effect1_dropShadow_1884_16361"
         result="shape"
         id="feBlend8" />
    </filter>
    <filter
       id="filter2_d_1884_16361"
       x="20.0547"
       y="8.76172"
       width="5.36841"
       height="18"
       filterUnits="userSpaceOnUse"
       color-interpolation-filters="sRGB">
      <feFlood
         flood-opacity="0"
         result="BackgroundImageFix"
         id="feFlood8" />
      <feColorMatrix
         in="SourceAlpha"
         type="matrix"
         values="0 0 0 0 0 0 0 0 0 0 0 0 0 0 0 0 0 0 127 0"
         result="hardAlpha"
         id="feColorMatrix8" />
      <feOffset
         dy="0.5"
         id="feOffset8" />
      <feGaussianBlur
         stdDeviation="0.5"
         id="feGaussianBlur8" />
      <feComposite
         in2="hardAlpha"
         operator="out"
         id="feComposite8" />
      <feColorMatrix
         type="matrix"
         values="0 0 0 0 0 0 0 0 0 0 0 0 0 0 0 0 0 0 0.12 0"
         id="feColorMatrix9" />
      <feBlend
         mode="normal"
         in2="BackgroundImageFix"
         result="effect1_dropShadow_1884_16361"
         id="feBlend9" />
      <feBlend
         mode="normal"
         in="SourceGraphic"
         in2="effect1_dropShadow_1884_16361"
         result="shape"
         id="feBlend10" />
    </filter>
    <linearGradient
       id="a"
       gradientUnits="userSpaceOnUse"
       x1="27.5"
       y1="3"
       x2="152"
       y2="63.5">
      <stop
         offset=".1"
         stop-color="#76b3e1"
         id="stop1" />
      <stop
         offset=".3"
         stop-color="#dcf2fd"
         id="stop2" />
      <stop
         offset="1"
         stop-color="#76b3e1"
         id="stop3" />
    </linearGradient>
    <linearGradient
       id="b"
       gradientUnits="userSpaceOnUse"
       x1="95.800003"
       y1="32.599998"
       x2="74"
       y2="105.2">
      <stop
         offset="0"
         stop-color="#76b3e1"
         id="stop4" />
      <stop
         offset=".5"
         stop-color="#4377bb"
         id="stop5" />
      <stop
         offset="1"
         stop-color="#1f3b77"
         id="stop6" />
    </linearGradient>
    <linearGradient
       id="c"
       gradientUnits="userSpaceOnUse"
       x1="18.4"
       y1="64.199997"
       x2="144.3"
       y2="149.8">
      <stop
         offset="0"
         stop-color="#315aa9"
         id="stop7" />
      <stop
         offset=".5"
         stop-color="#518ac8"
         id="stop8" />
      <stop
         offset="1"
         stop-color="#315aa9"
         id="stop9" />
    </linearGradient>
    <linearGradient
       id="d"
       gradientUnits="userSpaceOnUse"
       x1="75.199997"
       y1="74.5"
       x2="24.4"
       y2="260.79999">
      <stop
         offset="0"
         stop-color="#4377bb"
         id="stop10" />
      <stop
         offset=".5"
         stop-color="#1a336b"
         id="stop11" />
      <stop
         offset="1"
         stop-color="#1a336b"
         id="stop12" />
    </linearGradient>
  </defs>
  <g
     id="g17"
     transform="matrix(0.20050944,0,0,0.20050944,-0.73161172,0.4517525)"
     style="display:inline">
    <path
       d="M 163,35 C 163,35 110,-4 69,5 l -3,1 c -6,2 -11,5 -14,9 l -2,3 -15,26 26,5 c 11,7 25,10 38,7 l 46,9 z"
       fill="#76b3e1"
       id="path12" />
    <path
       d="M 163,35 C 163,35 110,-4 69,5 l -3,1 c -6,2 -11,5 -14,9 l -2,3 -15,26 26,5 c 11,7 25,10 38,7 l 46,9 z"
       opacity="0.3"
       fill="url(#a)"
       id="path13"
       style="fill:url(#a)" />
    <path
       d="m 52,35 -4,1 C 31,41 26,57 35,71 45,84 66,91 83,86 L 145,65 C 145,65 92,26 52,35 Z"
       fill="#518ac8"
       id="path14" />
    <path
       d="m 52,35 -4,1 C 31,41 26,57 35,71 45,84 66,91 83,86 L 145,65 C 145,65 92,26 52,35 Z"
       opacity="0.3"
       fill="url(#b)"
       id="path15"
       style="fill:url(#b)" />
    <path
       d="M 134,80 A 45,45 0 0 0 86,65 l -62,20 -20,35 112,19 20,-36 c 4,-7 3,-15 -2,-23 z"
       fill="url(#c)"
       id="path16"
       style="fill:url(#c)" />
    <path
       d="M 114,115 A 45,45 0 0 0 66,100 L 4,120 c 0,0 53,40 94,30 l 3,-1 c 17,-5 23,-21 13,-34 z"
       fill="url(#d)"
       id="path17"
       style="fill:url(#d)" />
  </g>
</svg>
